<?xml version="1.0" encoding="utf-8"?>
<!-- Generator: $$$/GeneralStr/196=Adobe Illustrator 27.6.0, SVG Export Plug-In . SVG Version: 6.00 Build 0)  -->
<svg version="1.1" xmlns="http://www.w3.org/2000/svg" xmlns:xlink="http://www.w3.org/1999/xlink" x="0px" y="0px"
	 viewBox="0 0 1119.998 428.313" style="enable-background:new 0 0 1119.998 428.313;" xml:space="preserve">
<style type="text/css">
	.st0{fill:#FFFFFF;}
	.st1{fill:#CFF3F1;}
	.st2{fill:#89C64A;}
	.st3{fill:#6DA02A;}
	.st4{fill:#5E8B48;}
	.st5{opacity:0.5;fill:#6DA02A;}
	.st6{fill:#886140;}
	.st7{opacity:0.4;fill:#6DA02A;}
	.st8{fill:#FFD187;}
	.st9{opacity:0.5;fill:#FFD187;}
	.st10{clip-path:url(#XMLID_00000178175686942216061290000012806823614739863997_);}
	.st11{opacity:0.45;}
	.st12{clip-path:url(#SVGID_00000060020056002087228920000012416929282686379708_);fill:#DB543E;}
	.st13{clip-path:url(#XMLID_00000076590828707666936140000008930711117160418721_);}
	.st14{fill:#DB543E;}
	.st15{fill:#F9E8D9;}
	.st16{fill:#8ABA3E;}
	.st17{opacity:0.41;fill:#8ABA3E;}
	.st18{fill:#D69DF4;}
	.st19{fill:#D84444;}
	.st20{fill:#F4DC64;}
	.st21{fill:#F4A2DD;}
	.st22{fill:#F29EEA;}
	.st23{fill:#66C7F2;}
	.st24{fill:#FFD261;}
	.st25{opacity:0.5;fill:#FFD261;}
	.st26{fill:#EDA02F;}
	.st27{fill:#4BBDFF;}
	.st28{fill:#409ECC;}
	.st29{fill:#444444;}
	.st30{fill:#FFFF99;}
	.st31{fill:#FFBB22;}
	.st32{fill:#B985BA;}
	.st33{fill:#D8A3D8;}
	.st34{fill:#F79877;}
	.st35{fill:#E87A5D;}
	.st36{fill:#7F493B;}
	.st37{fill:#A06953;}
	.st38{fill:#8E5744;}
	.st39{opacity:0.2;}
	.st40{fill:#3C3C3B;}
	.st41{opacity:0.3;}
	.st42{fill:#9D9D9C;}
	.st43{fill:#F9D3B7;}
	.st44{fill:#FFF3E9;}
	.st45{opacity:0.5;}
	.st46{fill:#512717;}
	.st47{fill:#B2B2B2;}
	.st48{fill:#706F6F;}
	.st49{opacity:0.35;}
	.st50{fill:#EAE8E5;}
	.st51{fill:#C63C3C;}
	.st52{opacity:0.8;fill:#575756;}
	.st53{fill:#FFFFFF;stroke:#FFFFFF;stroke-width:30;stroke-linecap:round;stroke-linejoin:round;stroke-miterlimit:10;}
	.st54{fill:#575756;}
</style>
<g id="Calque_1">
</g>
<g id="sky">
</g>
<g id="loups">
</g>
<g id="back_logo">
	<path class="st52" d="M1074.22,252.213c-0.854-3.411-2.594-6.774-5.489-10.605c-2.003-2.642-4.287-5.249-6.789-7.751
		c-2.448-2.449-4.991-4.711-7.572-6.735c-3.778-2.955-7.056-4.746-10.315-5.635c-2.399-0.653-4.92-0.7-7.341-0.138
		c-4.708,1.095-9.234,3.081-13.456,5.908c-3.993,2.675-7.534,5.935-10.528,9.691c-0.824,1.035-1.6,2.103-2.337,3.196
		c-0.192-0.174-0.379-0.352-0.577-0.522c-5.479-4.695-12.522-7.179-20.372-7.183c-0.279-0.712-0.617-1.411-1.013-2.088
		c-3.293-5.641-9.002-8.584-13.625-10.526c-4.672-1.955-9.681-3.325-14.887-4.072c-4.375-0.628-8.807,0.707-12.109,3.647
		c-1.891,1.685-3.741,3.817-5.655,6.516c-1.447,2.039-2.888,4.249-4.289,6.581c-1.115,1.86-2.139,3.724-3.058,5.56
		c-1.734-0.893-3.639-1.696-5.69-2.379c-2.106-0.703-4.344-1.293-6.656-1.757c-2.658-0.531-5.25-0.801-7.702-0.801
		c-3.7,0-7.266,1.367-10.015,3.833c-1.914-1.812-4.114-3.318-6.576-4.499c-1.911-0.911-3.916-1.705-5.986-2.369
		c-2.299-0.731-4.606-1.245-6.861-1.527c-1.996-0.249-3.772-0.37-5.43-0.37c-3.142,0-6.204,0.986-8.756,2.82
		c-4.977,3.577-9.62,8.405-13.801,14.348c-0.192,0.273-0.374,0.562-0.564,0.837c-3.297-3.039-6.974-4.534-9.974-5.259
		c-3.717-4.927-7.707-8.495-12.077-10.819c-2.169-1.153-4.588-1.757-7.044-1.757c-8.721,0-17.631,3.347-26.465,9.934
		c-4.904,3.644-9.491,8.012-13.632,12.981c-4.02,4.822-7.554,10.022-10.503,15.455c-3.019,5.556-5.39,11.385-7.051,17.332
		c-1.515,5.431-2.37,10.812-2.554,16.031c-1.186,0.138-2.367,0.293-3.534,0.469c-2.131,0.324-4.308,0.714-6.479,1.16
		c-0.881,0.183-1.79,0.379-2.724,0.59c1.402-3.532,2.918-7.312,4.526-11.292c2.403-5.946,4.904-12.397,7.435-19.175
		c2.575-6.713,5.058-13.056,7.382-18.855c2.343-5.853,4.51-11.143,6.442-15.724c1.92-4.553,3.619-8.478,5.054-11.673
		c1.677-3.739,2.454-5.079,2.652-5.4c3.094-5.017,2.963-11.381-0.335-16.266c-4.02-5.955-8.461-10.728-13.209-14.192
		c-0.625-0.456-1.265-0.893-1.916-1.313h216.57c6.366,0,12.039-4.019,14.151-10.025l2.224-6.325c1.613-4.589,0.9-9.676-1.912-13.646
		c-0.018-0.025-0.039-0.046-0.056-0.07c6.75-6.161,10.65-14.396,11.302-23.956c0.004-0.051,0.007-0.102,0.01-0.152
		c0.248-4.276-0.242-10.659-3.876-17.146c4.898-2.308,8.359-7.191,8.602-12.945c0.415-9.826-2.556-18.58-8.593-25.319
		c-4.315-4.814-12.16-10.629-25.023-10.984c-0.071-0.002-0.143-0.004-0.214-0.005c-9.886-0.091-18.883,3.045-25.979,9.188
		c-1.474,1.275-2.815,2.639-4.033,4.076c-0.177-0.246-0.35-0.496-0.534-0.737c-4.209-5.513-12.151-12.159-26.075-12.522
		c-8.545-0.215-16.325,1.971-22.976,6.4l2.792-16.123c0.755-4.361-0.454-8.833-3.305-12.219c-2.85-3.387-7.05-5.341-11.476-5.341
		h-10.873c-7.229,0-13.431,5.157-14.749,12.266l-2.823,15.233c-0.827-0.08-1.664-0.131-2.514-0.153
		c-15.884-0.496-28.671,7.873-35.973,23.439c-2.609,5.543-4.531,12.178-5.711,19.72c-1.094,6.989-1.626,12.6-1.626,17.151
		c0,9.458,1.786,17.462,5.301,23.872h-31.012l6.983-41.776c0.083-0.495,0.141-0.993,0.173-1.494l0.387-5.918
		c0.02-0.295,0.03-0.59,0.032-0.886c0.061-9.792-2.143-17.892-6.548-24.075c-5.283-7.414-13.46-11.6-23.032-11.793
		c-3.269-0.085-7.229,0.306-11.486,1.785c-1.262-0.336-2.588-0.505-3.906-0.502l-16.598,0.064
		c-7.071,0.028-13.119,4.989-14.592,11.851c-0.212-0.26-0.42-0.523-0.639-0.778c-6.716-7.808-16.216-12.08-27.475-12.354
		c-13-0.294-24.462,4.515-33.112,13.974c-0.569,0.622-1.118,1.264-1.655,1.916c-1.283-1.936-2.767-3.747-4.453-5.415
		c-6.799-6.725-15.753-10.271-26.613-10.539c-0.064-0.002-0.128-0.003-0.192-0.004c-8.19-0.082-15.568,1.774-22.021,5.542
		c0.689-2.37,1.046-4.889,1.046-7.526c0-6.778-2.528-12.834-7.317-17.518c-4.696-4.588-10.922-7.008-17.503-6.874
		c-6.62,0.058-12.57,2.541-17.221,7.189c-4.706,4.705-7.193,10.875-7.193,17.845c0,2.801,0.423,5.477,1.25,7.982
		c-1.418,1.667-2.475,3.66-3.058,5.866c-0.244-0.299-0.488-0.591-0.73-0.867c-4.487-5.116-12.772-11.289-26.763-11.637
		c-0.067-0.002-0.134-0.003-0.201-0.004c-9.363-0.075-17.689,2.249-24.838,6.972l2.105-12.112c0.758-4.362-0.45-8.837-3.3-12.225
		s-7.051-5.344-11.479-5.344h-24.317c-6.008,0-11.437,3.585-13.795,9.11L451.4,64.078l-0.556-6.852
		c-0.632-7.788-7.137-13.786-14.951-13.786h-23.803c-7.297,0-13.536,5.252-14.78,12.441l-16.211,93.665
		c-0.512,2.958-0.1,5.958,1.094,8.644c-1.105,1.496-1.954,3.207-2.448,5.089l-1.663,6.325c-1.182,4.498-0.211,9.29,2.629,12.974
		c2.84,3.683,7.228,5.84,11.878,5.84h18.478c-0.248,0.062-0.502,0.116-0.749,0.179c-6.149,1.57-12.02,3.455-17.456,5.604
		c-5.994,2.372-10.98,4.953-15.242,7.892c-4.421,3.048-6.875,8.227-6.436,13.577c0.237,2.883,0.961,5.806,2.213,8.934
		c0.914,2.287,1.985,4.545,3.171,6.688c1.306,2.369,2.773,4.586,4.347,6.57c2.077,2.627,4.235,4.669,6.599,6.243
		c2.603,1.733,5.594,2.561,8.564,2.514c-0.639,1.552-1.312,3.19-2.019,4.915c-4.197,9.909-7.673,18.17-10.628,25.252
		c-2.938,7.041-5.562,13.191-7.796,18.276c-2.319,5.272-4.191,9.484-5.722,12.873c-1.461,3.234-2.703,5.825-3.689,7.701
		c-2.416,4.595-2.285,10.113,0.348,14.588c1.691,2.874,3.524,5.508,5.474,7.898c-4.508,1.146-8.315,4.343-10.155,8.768l-2.661,6.396
		c-1.926,4.629-1.412,9.915,1.371,14.086s7.465,6.676,12.479,6.676h520.538c0.454,0,0.904-0.028,1.351-0.068
		c0.199,1.354,0.445,2.644,0.757,3.867c1.116,8.235,5.433,12.544,9.019,14.74c3.088,4.423,7.431,7.316,12.415,8.229
		c0.91,0.167,1.817,0.247,2.713,0.247c6.776,0,12.873-4.61,14.55-11.411c1.221-4.953,2.494-9.959,3.787-14.97h95.077
		c6.013,0,11.445-3.591,13.801-9.123l2.993-7.029c1.973-4.634,1.489-9.948-1.288-14.148c-2.198-3.324-5.6-5.594-9.419-6.4
		c5.379-7.316,8.352-16.181,8.857-26.443c2.602-0.661,4.98-2.01,6.888-3.907c3.286-3.272,5.096-7.829,5.096-12.83
		c0-1.661-0.131-4.059-1.144-6.68c1.961-1.104,3.992-2.719,5.908-5.063c1.779-2.171,3.345-4.669,4.79-7.646
		c1.312-2.709,2.417-5.717,3.288-8.958c0.89-3.324,1.426-6.622,1.594-9.801C1074.728,255.159,1074.584,253.663,1074.22,252.213z
		 M449.986,244.809c0.856-1.76,1.69-3.464,2.5-5.105c1.886-3.824,3.621-7.113,5.153-9.77c0.807-1.398,1.445-2.441,1.936-3.21
		c0.184-0.001,0.367-0.002,0.55-0.002c5.812,0,7.484,1.354,7.655,1.507c0.44,0.396,0.987,0.889,0.987,3.053
		c0,0.808-0.159,1.846-1.338,3.418c-1.615,2.153-4.107,4.183-7.407,6.032C457.202,242.31,453.841,243.676,449.986,244.809z
		 M578.048,331.433c1.951,2.257,4.21,4.34,6.763,6.219H573.92C575.725,335.967,577.147,333.851,578.048,331.433z M635.321,274.436
		c0.579,2.508,1.188,5.073,1.824,7.684c0.058,0.237,0.115,0.477,0.173,0.717c-0.981,0.359-1.95,0.751-2.906,1.174
		c-3.613,1.604-6.969,3.541-10.037,5.785c1.117-3.296,2.387-6.701,3.812-10.181c1.01-2.467,2.101-4.961,3.264-7.466
		c1.128-0.122,2.231-0.273,3.321-0.44C634.928,272.621,635.11,273.531,635.321,274.436z M549.406,336.936
		c0.353,0.242,0.705,0.492,1.062,0.716h-2.052C548.748,337.414,549.08,337.176,549.406,336.936z M420.134,312.278
		c2.026-5.886,4.436-12.176,7.202-18.804c1.49,0.175,3.062,0.261,4.723,0.261c9.604,0,18.863-1.546,27.514-4.592
		c8.667-3.049,16.398-7.286,22.978-12.594c4.776-3.851,8.898-8.23,12.344-13.054c0.703,1.645,1.618,3.288,2.88,4.796
		c0.35,0.418,0.72,0.814,1.109,1.188c-0.022,0.063-0.044,0.128-0.065,0.192c-1.896,5.573-3.582,11-5.01,16.128
		c-1.485,5.327-2.651,10.354-3.465,14.933c-0.9,5.051-1.338,9.281-1.338,12.934c0,5.184,1.661,10.176,4.932,14.831
		c2.391,3.409,5.438,6.485,9.064,9.154h-90.13C414.712,329.468,417.149,320.949,420.134,312.278z M830.426,334.919
		c3.005-1.875,5.842-3.957,8.518-6.213c0.048,0.06,0.092,0.123,0.141,0.183c2.286,2.81,5.003,5.242,8.056,7.22
		c0.853,0.553,1.732,1.061,2.625,1.544h-24.146C827.254,336.799,828.861,335.895,830.426,334.919z M884.915,332.089
		c0.25-0.268,0.489-0.545,0.719-0.831c0.101-0.125,0.206-0.257,0.315-0.395c0.257,0.231,0.519,0.46,0.784,0.684
		c0.423,0.355,0.864,0.687,1.323,0.993c1.819,1.215,3.764,2.359,5.754,3.39c1.177,0.611,2.382,1.18,3.599,1.727
		c-0.045,0-0.089-0.004-0.133-0.004h-18.589C880.776,336.158,882.818,334.341,884.915,332.089z M970.369,337.514
		c1.452-0.545,2.915-1.186,4.381-1.88c0.299,0.681,0.63,1.354,0.986,2.019h-5.757C970.109,337.605,970.238,337.563,970.369,337.514z
		 M739.371,193.642c-1.313,6.02-2.551,11.478-3.679,16.218c-1.101,4.622-2.233,9.07-3.366,13.224
		c-1.123,4.118-2.41,8.471-3.824,12.934c-1.438,4.538-3.183,9.884-5.184,15.889c-3.086,9.033-6.008,17.076-8.684,23.903
		c-2.722,6.937-5.206,13.023-7.383,18.086c-2.28,5.297-4.176,9.575-5.796,13.085c-1.715,3.717-3.146,6.834-4.288,9.348
		c-2.05,4.511-1.739,9.743,0.828,13.98c1.596,2.633,3.294,5.083,5.071,7.344h-32.035c5.228-7.253,8.125-16.003,8.623-26.114
		c2.596-0.66,4.972-2.004,6.876-3.896c3.294-3.272,5.108-7.833,5.108-12.841c0-1.661-0.132-4.06-1.144-6.68
		c1.962-1.106,3.995-2.722,5.912-5.069c1.775-2.167,3.338-4.662,4.786-7.641c1.313-2.712,2.419-5.722,3.286-8.953
		c0.89-3.321,1.427-6.62,1.595-9.806c0.079-1.489-0.064-2.982-0.426-4.43c-0.852-3.41-2.592-6.776-5.491-10.615
		c-2.003-2.642-4.287-5.249-6.789-7.751c-2.448-2.449-4.991-4.711-7.572-6.735c-3.776-2.954-7.054-4.745-10.313-5.634
		c-2.397-0.653-4.92-0.701-7.342-0.139c-3.516,0.816-6.93,2.133-10.19,3.922c-0.087-3.288-1.245-6.551-3.48-9.225
		c-2.026-2.424-4.733-4.398-8.288-6.041c-1.909-0.88-4.036-1.727-6.355-2.526c-2.315-0.792-4.635-1.453-6.917-1.971
		c-2.875-0.648-5.372-0.963-7.635-0.963c-2.784,0-5.513,0.774-7.882,2.238c-0.221,0.136-0.44,0.284-0.66,0.432
		c-1.032-1.062-2.176-2.121-3.461-3.194c-2.332-1.941-4.905-3.737-7.654-5.342c-2.759-1.609-5.572-2.952-8.379-3.997
		c-3.704-1.374-7.051-2.042-10.233-2.042c-6.253,0-11.851,3.879-14.045,9.734c-0.786,2.097-1.571,4.416-2.333,6.894
		c-0.397,1.29-0.762,2.562-1.095,3.808c-1.48-1.138-3.186-2.158-5.163-3.072c-1.911-0.881-4.038-1.727-6.354-2.525
		c-2.314-0.792-4.635-1.453-6.917-1.971c-2.875-0.648-5.372-0.963-7.635-0.963c-1.182,0-2.352,0.148-3.491,0.42
		c0.726-2.351,1.39-4.762,1.96-7.264c0.523-2.297,0.497-4.685-0.075-6.97c-0.196-0.783-0.453-1.552-0.741-2.312h200.5
		C740.573,189.959,739.791,191.714,739.371,193.642z M488.728,188.419c0.275,2.99,0.424,5.796,0.439,8.379
		c-0.182-0.153-0.355-0.313-0.54-0.464c-3.95-3.207-8.536-5.853-13.668-7.915H488.728z"/>
	<g>
		<g>
			<path class="st53" d="M478.128,238.213c0,6.237-1.56,12.19-4.677,17.859c-3.12,5.671-7.313,10.63-12.586,14.882
				c-5.272,4.253-11.454,7.628-18.54,10.12c-7.088,2.496-14.601,3.742-22.537,3.742c-2.835,0-5.076-0.366-6.718-1.105
				c-1.645-0.736-3.487-2.182-5.528-4.337c-5.671,12.36-10.29,23.727-13.862,34.103c-3.572,10.375-6.378,20.437-8.419,30.19
				c-4.311-1.021-7.824-2.807-10.545-5.358c-2.722-2.551-5.217-5.756-7.484-9.609c1.132-2.153,2.493-4.988,4.082-8.505
				c1.586-3.513,3.513-7.851,5.783-13.012c2.267-5.158,4.903-11.337,7.909-18.539c3.003-7.199,6.548-15.619,10.63-25.258
				c1.812-4.423,3.402-8.276,4.763-11.566c1.361-3.287,2.551-6.378,3.572-9.27s1.956-5.754,2.807-8.589
				c0.85-2.833,1.727-5.953,2.636-9.355c-5.331,1.701-10.234,3.687-14.712,5.953c-4.481,2.27-8.194,4.651-11.141,7.144
				c-1.021-0.68-2.07-1.7-3.146-3.062c-1.079-1.36-2.07-2.862-2.977-4.507c-0.909-1.643-1.701-3.316-2.381-5.018
				c-0.681-1.701-1.079-3.231-1.191-4.593c3.288-2.267,7.37-4.363,12.247-6.293c4.874-1.927,10.091-3.599,15.648-5.018
				c5.554-1.416,11.311-2.522,17.264-3.316c5.953-0.792,11.651-1.19,17.094-1.19c6.463,0,12.302,0.823,17.519,2.466
				c5.214,1.646,9.636,3.941,13.267,6.889c3.628,2.95,6.405,6.463,8.334,10.545C477.163,228.687,478.128,233.225,478.128,238.213z
				 M447.852,217.803c-4.311,0-8.733,0.34-13.267,1.021l2.041,3.062c-1.135,1.475-2.551,3.686-4.252,6.633
				c-1.701,2.95-3.572,6.493-5.613,10.631c-2.041,4.141-4.281,8.759-6.718,13.862c-2.44,5.103-5.018,10.489-7.739,16.158
				c8.844,0,16.894-0.821,24.152-2.467c7.255-1.643,13.463-3.912,18.625-6.804c5.158-2.891,9.185-6.264,12.076-10.12
				c2.891-3.854,4.337-7.994,4.337-12.416c0-5.895-1.985-10.631-5.953-14.202C461.571,219.588,455.677,217.803,447.852,217.803z"/>
			<path class="st53" d="M486.632,240.424c-0.68-0.566-1.305-1.502-1.871-2.807c-0.568-1.302-0.85-2.521-0.85-3.656
				c2.833-4.763,4.874-9.552,6.123-14.373c1.247-4.818,1.871-10.231,1.871-16.243c0-4.533-0.34-9.524-1.021-14.968
				c2.833,0.229,5.639,0.71,8.419,1.446c2.777,0.738,5.273,1.645,7.484,2.721c2.211,1.079,4.053,2.326,5.528,3.742
				c1.473,1.419,2.381,2.807,2.722,4.167C510.726,219.392,501.26,232.714,486.632,240.424z"/>
			<path class="st53" d="M497.006,264.746c-0.569-0.68-1.079-2.126-1.531-4.337c-0.455-2.211-0.681-4.108-0.681-5.698
				c2.947,0.455,5.783,0.681,8.504,0.681c2.722,0,5.214,0,7.484,0c1.701-3.362,3.542-6.697,5.528-10.006
				c1.982-3.307,3.912-6.333,5.783-9.081c1.871-2.745,3.627-5.071,5.272-6.979c1.643-1.906,2.918-3.139,3.827-3.7
				c1.132,0,2.578,0.199,4.337,0.596c1.757,0.398,3.543,0.909,5.358,1.53c1.812,0.625,3.458,1.276,4.933,1.956
				c1.472,0.681,2.493,1.361,3.062,2.041c-3.402,4.279-6.322,8.25-8.76,11.909c-2.439,3.662-5.076,7.855-7.909,12.584
				c2.267,0,4.563,0,6.888,0c2.323,0,4.678-0.17,7.059-0.511c0.566,0.569,1.021,1.276,1.361,2.126c0.34,0.851,0.51,1.73,0.51,2.637
				c-5.557,2.155-12.305,3.231-20.24,3.231c-2.835,5.459-5.358,10.886-7.569,16.286s-4.082,10.602-5.613,15.603
				c-1.531,5.002-2.722,9.722-3.572,14.154c-0.851,4.434-1.276,8.412-1.276,11.936c0,5.002,1.871,7.787,5.613,8.355
				c3.402-0.451,6.633-1.302,9.695-2.551c3.062-1.247,5.783-2.833,8.164-4.763c0.68,1.021,1.076,1.871,1.19,2.551
				c-0.68,1.016-1.844,2.198-3.487,3.548c-1.645,1.351-3.431,2.674-5.357,3.971c-1.93,1.292-3.801,2.39-5.613,3.293
				c-1.815,0.898-3.176,1.406-4.082,1.521c-2.835,0-5.671-0.569-8.504-1.701c-2.835-1.138-5.416-2.557-7.739-4.258
				c-2.325-1.706-4.226-3.606-5.698-5.705c-1.475-2.1-2.211-4.173-2.211-6.217c0-2.724,0.367-6.157,1.105-10.301
				c0.736-4.144,1.786-8.656,3.147-13.538c1.36-4.882,2.947-9.989,4.762-15.326c1.812-5.337,3.798-10.614,5.953-15.837H497.006z"/>
			<path class="st53" d="M538.505,318.494c0-1.021,0.085-2.297,0.255-3.827c0.17-1.531,0.481-3.572,0.936-6.123
				c0.452-2.552,1.047-5.64,1.786-9.27c0.736-3.628,1.672-7.994,2.807-13.097c0.226-1.133,0.736-2.947,1.531-5.443
				c0.792-2.493,1.842-5.129,3.146-7.909c1.302-2.777,2.892-5.469,4.762-8.079c1.871-2.606,4.109-4.533,6.719-5.783
				c1.927,0.455,4.478,1.616,7.654,3.487c3.173,1.871,5.895,4.451,8.164,7.739c-2.61,2.949-4.792,5.896-6.548,8.844
				c-1.759,2.95-3.346,6.012-4.762,9.186c-1.419,3.176-2.722,6.463-3.912,9.864c-1.19,3.402-2.525,6.974-3.997,10.716
				c-1.249,3.176-2.381,6.437-3.402,9.78c-1.021,3.346-1.589,6.267-1.701,8.759c0,2.041-0.029,3.487-0.085,4.338
				c-0.059,0.851-0.37,1.275-0.936,1.275c-0.455,0-1.361-0.284-2.722-0.851c-1.36-0.568-2.75-1.445-4.167-2.636
				c-1.419-1.191-2.695-2.692-3.827-4.508C539.071,323.144,538.505,320.989,538.505,318.494z M570.992,244.676
				c0-0.68,0.17-1.7,0.51-3.062c-0.569-0.565-1.05-1.416-1.446-2.551c-0.399-1.133-0.595-2.153-0.595-3.062
				c0-1.021,0.141-2.408,0.425-4.167c0.281-1.757,0.651-3.657,1.105-5.698c0.452-2.041,1.021-4.167,1.701-6.378
				c0.68-2.212,1.361-4.224,2.041-6.038c1.361,0,3.032,0.369,5.018,1.105c1.982,0.738,3.997,1.7,6.038,2.891
				c2.041,1.191,3.912,2.496,5.613,3.912c1.701,1.42,3.003,2.751,3.912,3.997c-1.249,1.249-2.892,2.977-4.933,5.188
				c-2.041,2.212-4.026,4.537-5.953,6.974c-1.929,2.44-3.686,4.736-5.272,6.889c-1.589,2.155-2.61,3.687-3.062,4.593
				c-1.361-0.226-2.551-0.821-3.572-1.786C571.502,246.52,570.992,245.585,570.992,244.676z"/>
			<path class="st53" d="M578.817,264.746c-0.569-0.68-1.079-2.126-1.531-4.337c-0.455-2.211-0.681-4.108-0.681-5.698
				c2.947,0.455,5.783,0.681,8.504,0.681c2.722,0,5.214,0,7.484,0c1.701-3.362,3.542-6.697,5.528-10.006
				c1.982-3.307,3.912-6.333,5.783-9.081c1.871-2.745,3.627-5.071,5.272-6.979c1.643-1.906,2.918-3.139,3.827-3.7
				c1.132,0,2.578,0.199,4.337,0.596c1.757,0.398,3.543,0.909,5.358,1.53c1.812,0.625,3.458,1.276,4.933,1.956
				c1.473,0.681,2.493,1.361,3.062,2.041c-3.401,4.279-6.322,8.25-8.76,11.909c-2.439,3.662-5.076,7.855-7.909,12.584
				c2.267,0,4.563,0,6.888,0c2.323,0,4.678-0.17,7.059-0.511c0.566,0.569,1.021,1.276,1.361,2.126c0.34,0.851,0.51,1.73,0.51,2.637
				c-5.557,2.155-12.305,3.231-20.24,3.231c-2.835,5.459-5.358,10.886-7.569,16.286s-4.082,10.602-5.613,15.603
				c-1.531,5.002-2.722,9.722-3.572,14.154c-0.851,4.434-1.276,8.412-1.276,11.936c0,5.002,1.871,7.787,5.613,8.355
				c3.402-0.451,6.633-1.302,9.695-2.551c3.062-1.247,5.783-2.833,8.164-4.763c0.68,1.021,1.076,1.871,1.19,2.551
				c-0.68,1.016-1.844,2.198-3.487,3.548c-1.645,1.351-3.431,2.674-5.357,3.971c-1.93,1.292-3.801,2.39-5.613,3.293
				c-1.815,0.898-3.176,1.406-4.082,1.521c-2.835,0-5.671-0.569-8.504-1.701c-2.835-1.138-5.416-2.557-7.739-4.258
				c-2.325-1.706-4.226-3.606-5.698-5.705c-1.475-2.1-2.211-4.173-2.211-6.217c0-2.724,0.367-6.157,1.105-10.301
				c0.736-4.144,1.786-8.656,3.147-13.538c1.36-4.882,2.947-9.989,4.762-15.326c1.812-5.337,3.798-10.614,5.953-15.837H578.817z"/>
			<path class="st53" d="M678.826,261.939c-0.114,2.155-0.483,4.396-1.105,6.719c-0.624,2.325-1.39,4.423-2.296,6.293
				c-0.909,1.871-1.871,3.432-2.892,4.678c-1.021,1.249-1.985,1.871-2.892,1.871c-1.249-0.111-1.985-0.962-2.211-2.552
				c0-0.34,0.141-0.877,0.426-1.615c0.281-0.736,0.595-1.558,0.936-2.467c0.34-0.906,0.65-1.812,0.935-2.721
				c0.282-0.906,0.426-1.701,0.426-2.382c0-1.586-0.369-2.918-1.105-3.997c-0.739-1.076-1.73-1.615-2.977-1.615
				c-4.537,0-7.994,2.822-10.376,8.464c-2.381,5.643-3.571,13.937-3.571,24.884c0,1.129,0.056,1.807,0.17,2.03
				c2.381,0,4.508,0,6.378,0c1.871,0,3.713,0,5.528,0c0.111,0.226,0.17,0.678,0.17,1.353c0,1.018-0.229,1.751-0.681,2.2
				c-2.609,0.566-4.677,1.048-6.208,1.44c-1.53,0.396-2.694,0.763-3.486,1.101c-0.795,0.34-1.275,0.707-1.446,1.101
				c-0.17,0.396-0.255,0.933-0.255,1.607c0,0.903,0.026,1.805,0.085,2.708c0.056,0.903,0.085,2.03,0.085,3.383
				c0,9.48-2.58,17.104-7.738,22.88c-5.161,5.772-12.332,9.113-21.517,10.021c-1.589-0.114-3.232-0.568-4.933-1.36
				c-1.701-0.795-3.317-1.815-4.848-3.062c-1.531-1.249-2.865-2.637-3.997-4.167c-1.135-1.531-1.929-3.091-2.381-4.678
				c0-4.343,0.906-8.483,2.721-12.427c1.812-3.941,4.279-7.426,7.399-10.455c3.117-3.029,6.804-5.485,11.056-7.372
				c4.252-1.885,8.871-2.828,13.862-2.828c0-2.846-0.284-5.637-0.851-8.368c-0.568-2.732-1.164-5.382-1.786-7.944
				c-0.624-2.562-1.22-5.067-1.785-7.518c-0.569-2.448-0.851-4.869-0.851-7.261c0-3.072,0.622-6.118,1.871-9.137
				c1.246-3.02,2.891-5.81,4.932-8.372c2.042-2.562,4.423-4.752,7.145-6.575c2.721-1.822,5.554-3.074,8.504-3.76
				c1.246,0.34,2.918,1.334,5.018,2.977c2.097,1.645,4.167,3.486,6.208,5.527s3.854,4.111,5.443,6.208
				C677.521,258.851,678.486,260.579,678.826,261.939z M622.698,339.5c2.721-1.135,5.299-2.78,7.738-4.933
				c2.438-2.155,4.563-4.593,6.379-7.314c1.812-2.721,3.258-5.612,4.337-8.674c1.076-3.062,1.616-6.064,1.616-9.015
				c-2.27,0.34-4.763,1.39-7.484,3.146c-2.722,1.759-5.272,3.856-7.653,6.293c-2.382,2.439-4.367,4.962-5.954,7.569
				c-1.589,2.609-2.381,4.874-2.381,6.803C619.296,335.869,620.428,337.91,622.698,339.5z"/>
			<path class="st53" d="M766.419,320.194c2.832,4.877,4.252,9.565,4.252,14.069c0,1.013-0.086,1.943-0.256,2.788
				c-0.17,0.846-0.369,1.717-0.596,2.618c-1.928-0.284-3.939-0.426-6.037-0.426c-2.1,0-4.281,0-6.549,0c-2.721,0-5.471,0-8.248,0
				c-2.781,0-5.868,0.181-9.271,0.542c-3.401,0.362-7.202,0.843-11.396,1.446c-4.196,0.601-9.073,1.385-14.628,2.35
				c-2.609-0.909-5.217-2.695-7.823-5.358c-2.61-2.665-5.047-5.868-7.314-9.609c1.133-2.493,2.552-5.584,4.252-9.27
				c1.701-3.684,3.684-8.165,5.953-13.438c2.268-5.272,4.789-11.451,7.569-18.539c2.777-7.086,5.754-15.279,8.93-24.578
				c2.041-6.123,3.798-11.507,5.272-16.158c1.473-4.647,2.807-9.155,3.997-13.521c1.19-4.364,2.352-8.93,3.486-13.692
				c1.133-4.763,2.382-10.261,3.742-16.498c4.534,0.908,8.476,2.58,11.821,5.018c3.344,2.439,6.549,5.926,9.609,10.46
				c-0.908,1.473-2.1,3.854-3.572,7.139c-1.475,3.284-3.205,7.279-5.188,11.98c-1.984,4.704-4.166,10.029-6.547,15.978
				c-2.383,5.947-4.877,12.32-7.484,19.119c-2.496,6.687-4.933,12.974-7.313,18.866c-2.382,5.892-4.508,11.218-6.379,15.975
				c-1.871,4.76-3.375,8.839-4.507,12.238c-1.135,3.399-1.701,5.947-1.701,7.646c1.812,0,3.458-0.056,4.933-0.17
				c1.473-0.111,3.003-0.311,4.593-0.595c1.586-0.282,3.316-0.622,5.188-1.021c1.871-0.396,4.108-0.936,6.718-1.616
				c2.267-0.566,4.364-1.047,6.294-1.445c1.926-0.396,3.826-0.736,5.697-1.021c1.871-0.282,3.797-0.511,5.783-0.681
				C761.682,320.62,763.923,320.423,766.419,320.194z"/>
			<path class="st53" d="M791.421,335.843c-6.463-0.681-11.624-3.516-15.478-8.505c-3.856-4.988-5.783-11.337-5.783-19.049
				c0-4.534,0.681-9.241,2.041-14.118c1.361-4.874,3.288-9.609,5.783-14.202c2.493-4.592,5.442-8.93,8.845-13.012
				c3.401-4.082,7.085-7.595,11.056-10.545c6.234-4.648,12.076-6.974,17.519-6.974c3.628,1.93,7.199,5.953,10.716,12.076
				c0.566,0,1.076-0.026,1.53-0.085c0.452-0.056,0.963-0.085,1.531-0.085c6.009,0,9.015,5.331,9.015,15.988
				c0,7.144-1.164,13.92-3.487,20.325c-2.325,6.407-5.557,12.22-9.694,17.434c-4.141,5.217-9.073,9.61-14.798,13.182
				C804.488,331.846,798.224,334.368,791.421,335.843z M800.096,282.266c-1.93,2.609-3.742,5.442-5.442,8.504
				c-1.701,3.062-3.176,6.152-4.423,9.27c-1.249,3.12-2.211,6.123-2.892,9.015c-0.68,2.892-1.021,5.473-1.021,7.739
				c0,2.722,0.452,5.331,1.361,7.824c0.906,2.495,1.927,3.912,3.062,4.252c5.103-1.132,9.779-3.258,14.032-6.378
				c4.252-3.118,7.936-7.001,11.056-11.651c3.117-4.648,5.554-9.921,7.313-15.818c1.757-5.895,2.637-12.188,2.637-18.879
				c0-2.947-0.171-5.273-0.511-6.974c-0.34-1.701-0.909-3.174-1.701-4.423c-4.99,1.476-9.439,3.856-13.352,7.144
				C806.304,275.18,802.929,278.638,800.096,282.266z"/>
			<path class="st53" d="M884.117,326.147c-2.155-1.812-3.601-4.082-4.337-6.803c-0.738-2.722-1.105-5.045-1.105-6.974
				c0-2.382,0.281-4.423,0.851-6.124c-0.455,0-1.476,0.906-3.062,2.714c-1.59,1.81-3.317,3.957-5.188,6.444
				c-1.871,2.488-3.716,4.917-5.528,7.29c-1.815,2.373-3.176,4.125-4.082,5.254c-1.475,1.584-2.865,2.825-4.167,3.731
				c-1.305,0.901-2.354,1.411-3.146,1.525c-1.815,0-3.716-0.316-5.698-0.94c-1.985-0.63-3.856-1.515-5.612-2.655
				c-1.76-1.14-3.291-2.509-4.593-4.108c-1.305-1.598-2.185-3.423-2.637-5.478c0-3.173,0.085-5.783,0.256-7.824
				c0.17-2.041,0.536-4.252,1.105-6.633c1.021-4.309,2.521-9.185,4.507-14.628c1.982-5.442,4.279-10.8,6.889-16.073
				c2.607-5.272,5.528-10.205,8.76-14.797c3.231-4.593,6.66-8.191,10.29-10.801c1.021,0,2.211,0.085,3.572,0.255
				c1.36,0.17,2.747,0.483,4.167,0.936c1.416,0.454,2.777,0.994,4.082,1.616c1.302,0.624,2.407,1.445,3.316,2.466
				c-1.021,1.135-3.601,4.933-7.739,11.396c-4.141,6.464-8.759,15.763-13.861,27.895c-0.569,1.249-1.249,3.062-2.041,5.443
				c-0.795,2.381-1.59,4.876-2.382,7.483c-0.795,2.609-1.445,5.161-1.956,7.654c-0.51,2.495-0.766,4.48-0.766,5.953
				c0,0.908,0.142,1.589,0.426,2.041c0.281,0.454,0.537,0.794,0.766,1.021c1.7-0.681,3.854-2.552,6.463-5.613
				c2.607-3.062,6.234-7.766,10.886-14.117c1.132-1.587,2.466-3.401,3.997-5.442c1.53-2.041,3.088-4.224,4.678-6.549
				c1.586-2.322,3.088-4.733,4.507-7.229c1.417-2.493,2.578-4.988,3.486-7.484c0.452-1.36,1.048-2.977,1.786-4.847
				c0.736-1.871,1.643-3.827,2.722-5.868c1.076-2.041,2.322-4.109,3.742-6.208c1.416-2.098,3.088-4.054,5.018-5.868
				c1.472,0,3.062,0.17,4.762,0.51c1.701,0.341,3.317,0.766,4.848,1.276c1.531,0.51,2.862,1.078,3.997,1.7
				c1.133,0.625,1.982,1.275,2.552,1.956c-2.041,4.991-4.311,9.924-6.804,14.798c-2.495,4.877-4.821,9.668-6.974,14.372
				c-2.155,4.707-3.971,9.384-5.442,14.032c-1.476,4.651-2.212,9.185-2.212,13.607c0,2.381,0.197,4.451,0.596,6.208
				c0.396,1.759,0.821,3.231,1.275,4.422c0.452,1.19,0.877,2.185,1.276,2.977c0.396,0.792,0.595,1.473,0.595,2.041
				c0,0.111-0.114,0.282-0.34,0.511c-0.114,0.111-0.229,0.17-0.341,0.17c-0.794,0-1.814-0.17-3.062-0.511
				c-1.249-0.34-2.636-0.823-4.167-1.445c-1.53-0.625-3.062-1.331-4.592-2.126C886.924,327.907,885.478,327.057,884.117,326.147z"/>
			<path class="st53" d="M900.954,386.188c-1.589-0.454-2.495-2.155-2.722-5.103c-0.454-1.475-0.765-3.231-0.936-5.272
				c-0.17-2.041-0.255-4.367-0.255-6.974c0-2.382,0.396-5.643,1.19-9.78c0.792-4.141,1.897-8.818,3.317-14.032
				c1.416-5.217,3.146-10.859,5.188-16.924s4.308-12.217,6.804-18.454c3.062-7.824,5.724-14.599,7.994-20.325
				c2.267-5.725,4.167-10.687,5.697-14.883c1.531-4.193,2.777-7.654,3.742-10.375c0.962-2.722,1.728-5.045,2.296-6.974
				c0.452-1.361,1.133-3.004,2.041-4.933c0.906-1.927,1.956-3.883,3.146-5.868c1.191-1.982,2.408-3.854,3.657-5.613
				c1.246-1.757,2.381-3.088,3.401-3.997c3.968,0.569,7.71,1.59,11.227,3.062c3.513,1.476,5.668,2.892,6.463,4.253
				c-1.589,1.475-3.401,3.771-5.442,6.888c-2.041,3.12-4.026,6.522-5.953,10.206c-1.93,3.686-3.687,7.457-5.273,11.311
				c-1.589,3.856-2.779,7.258-3.571,10.205c1.132-1.927,2.607-4.023,4.422-6.293c1.812-2.268,4.593-5.385,8.335-9.355
				c4.193-4.308,8.135-7.624,11.82-9.949c3.684-2.323,6.889-3.487,9.61-3.487c4.308,0,7.851,1.19,10.63,3.572
				c2.777,2.381,4.168,5.442,4.168,9.185c0,8.164-1.361,16.243-4.083,24.237c-2.721,7.994-6.633,15.223-11.735,21.686
				c-1.93,2.496-4.196,4.877-6.804,7.145c-2.609,2.27-5.331,4.281-8.164,6.038c-2.836,1.759-5.613,3.146-8.334,4.167
				c-2.722,1.021-5.161,1.53-7.314,1.53c-2.041,0-3.826-0.425-5.357-1.275c-1.53-0.851-2.58-1.897-3.146-3.146
				c4.422-2.607,8.73-6.235,12.927-10.886c4.193-4.648,8.079-10.006,11.65-16.073c3.572-6.064,6.689-12.613,9.355-19.646
				c2.662-7.029,4.677-14.173,6.038-21.431c-4.311,2.27-8.193,4.736-11.651,7.399c-3.46,2.665-6.889,6.152-10.29,10.46
				c-4.082,4.991-7.313,9.015-9.695,12.076c-2.381,3.062-4.337,5.671-5.868,7.824c-1.53,2.155-2.779,4.167-3.741,6.038
				c-0.965,1.871-2.015,4.167-3.146,6.889c-1.59,3.63-3.432,8.419-5.528,14.372c-2.1,5.953-4.252,12.613-6.463,19.985
				c-2.212,7.369-4.423,15.223-6.634,23.557s-4.337,16.64-6.378,24.918c-1.249-0.229-2.326-1.135-3.232-2.722
				c-0.908-1.021-1.56-1.759-1.956-2.211C902.001,386.755,901.52,386.414,900.954,386.188z"/>
			<path class="st53" d="M1047.399,261.939c-0.114,2.155-0.484,4.396-1.105,6.719c-0.625,2.325-1.391,4.423-2.297,6.293
				c-0.908,1.871-1.87,3.432-2.892,4.678c-1.021,1.249-1.984,1.871-2.891,1.871c-1.249-0.111-1.985-0.962-2.212-2.552
				c0-0.34,0.142-0.877,0.426-1.615c0.281-0.736,0.595-1.558,0.936-2.467c0.34-0.906,0.651-1.812,0.936-2.721
				c0.281-0.906,0.425-1.701,0.425-2.382c0-1.586-0.369-2.918-1.105-3.997c-0.739-1.076-1.73-1.615-2.977-1.615
				c-4.536,0-7.994,2.822-10.375,8.464c-2.382,5.643-3.572,13.937-3.572,24.884c0,1.129,0.056,1.807,0.17,2.03
				c2.382,0,4.508,0,6.379,0s3.712,0,5.527,0c0.111,0.226,0.17,0.678,0.17,1.353c0,1.018-0.229,1.751-0.68,2.2
				c-2.61,0.566-4.678,1.048-6.208,1.44c-1.531,0.396-2.695,0.763-3.487,1.101c-0.795,0.34-1.275,0.707-1.445,1.101
				c-0.171,0.396-0.256,0.933-0.256,1.607c0,0.903,0.027,1.805,0.085,2.708c0.057,0.903,0.086,2.03,0.086,3.383
				c0,9.48-2.581,17.104-7.739,22.88c-5.161,5.772-12.331,9.113-21.517,10.021c-1.589-0.114-3.231-0.568-4.932-1.36
				c-1.701-0.795-3.317-1.815-4.848-3.062c-1.531-1.249-2.865-2.637-3.997-4.167c-1.135-1.531-1.93-3.091-2.382-4.678
				c0-4.343,0.906-8.483,2.722-12.427c1.812-3.941,4.279-7.426,7.398-10.455c3.118-3.029,6.804-5.485,11.056-7.372
				c4.253-1.885,8.871-2.828,13.862-2.828c0-2.846-0.284-5.637-0.851-8.368c-0.568-2.732-1.164-5.382-1.785-7.944
				c-0.625-2.562-1.221-5.067-1.786-7.518c-0.569-2.448-0.851-4.869-0.851-7.261c0-3.072,0.622-6.118,1.871-9.137
				c1.246-3.02,2.892-5.81,4.933-8.372c2.041-2.562,4.422-4.752,7.144-6.575c2.722-1.822,5.555-3.074,8.504-3.76
				c1.247,0.34,2.918,1.334,5.018,2.977c2.097,1.645,4.167,3.486,6.208,5.527s3.854,4.111,5.443,6.208
				C1046.095,258.851,1047.058,260.579,1047.399,261.939z M991.27,339.5c2.722-1.135,5.299-2.78,7.739-4.933
				c2.437-2.155,4.562-4.593,6.378-7.314c1.812-2.721,3.258-5.612,4.337-8.674c1.076-3.062,1.616-6.064,1.616-9.015
				c-2.27,0.34-4.763,1.39-7.484,3.146c-2.721,1.759-5.272,3.856-7.653,6.293c-2.382,2.439-4.366,4.962-5.953,7.569
				c-1.589,2.609-2.381,4.874-2.381,6.803C987.869,335.869,989.001,337.91,991.27,339.5z"/>
		</g>
		<g>
			<path class="st53" d="M423.622,64.521l5.468,67.354l28.756-67.354h24.317l-16.275,93.664H447.36l4.503-25.924l8.106-36.99
				l-28.691,62.914h-12.544l-7.077-65.037l-5.339,40.334l-4.246,24.703h-18.463l16.211-93.664H423.622z"/>
			<path class="st53" d="M517.316,158.185c-0.344-1.457-0.515-3.258-0.515-5.402c-3.946,4.502-8.449,6.754-13.509,6.754
				c-5.362-0.086-9.661-2.059-12.898-5.918c-3.239-3.861-4.729-8.664-4.471-14.41c0.386-7.377,3.259-13.156,8.621-17.338
				c5.36-4.182,12.565-6.271,21.615-6.271h5.211l0.836-5.662l0.193-2.895c0-3.73-1.501-5.596-4.503-5.596
				c-4.161-0.129-6.69,2.529-7.591,7.977l-17.691,0.129c0.386-6.605,3.13-11.998,8.234-16.18c5.104-4.182,11.322-6.229,18.656-6.145
				c6.905,0.172,12.191,2.35,15.858,6.531c3.667,4.182,5.156,9.703,4.471,16.564l-5.661,35.381l-0.257,3.41
				c-0.172,3.002,0.129,5.641,0.901,7.912l-0.064,1.158H517.316z M508.181,145.32c3.13,0.086,6.047-1.287,8.749-4.117l3.152-14.732
				h-3.86c-3.432,0.172-6.198,1.33-8.298,3.475c-2.102,2.145-3.368,4.846-3.796,8.105l-0.064,2.445c0,1.373,0.354,2.508,1.062,3.408
				C505.833,144.805,506.851,145.277,508.181,145.32z"/>
			<path class="st53" d="M567.586,158.185h-17.819l12.094-69.605h17.819L567.586,158.185z M564.177,70.889
				c0-2.959,0.933-5.371,2.798-7.236c1.866-1.865,4.149-2.799,6.851-2.799c2.659-0.086,4.921,0.783,6.787,2.605
				c1.865,1.824,2.798,4.086,2.798,6.787c0,3.002-0.933,5.436-2.798,7.301c-1.866,1.867-4.149,2.799-6.852,2.799
				c-2.745,0.086-5.029-0.781-6.851-2.605C565.088,75.918,564.177,73.635,564.177,70.889z"/>
			<path class="st53" d="M619.272,139.08c0.428-3.002-1.909-5.682-7.012-8.041c-5.104-2.359-8.932-4.578-11.483-6.658
				c-2.552-2.08-4.418-4.385-5.597-6.916c-1.18-2.529-1.705-5.404-1.576-8.621c0.299-6.303,2.884-11.504,7.751-15.6
				c4.867-4.096,10.818-6.1,17.852-6.016c6.947,0.172,12.426,2.242,16.437,6.209c4.009,3.967,5.972,9.211,5.886,15.729h-17.755
				c0.128-3.021-0.269-5.16-1.19-6.414c-0.922-1.256-2.37-1.885-4.342-1.885c-2.058,0-3.806,0.695-5.243,2.086
				c-1.438,1.389-2.327,3.066-2.67,5.031c-0.515,2.779,1.662,5.26,6.53,7.439c4.867,2.182,8.373,3.996,10.518,5.451
				c6.39,4.246,9.37,10.057,8.941,17.434c-0.257,4.332-1.598,8.115-4.021,11.354c-2.424,3.238-5.661,5.715-9.714,7.43
				s-8.438,2.51-13.155,2.381c-6.777-0.172-12.309-2.381-16.597-6.627c-4.289-4.244-6.391-9.67-6.305-16.275l16.919,0.064
				c-0.128,3.346,0.407,5.748,1.608,7.205c1.2,1.459,3.066,2.188,5.597,2.188c2.229,0,4.127-0.588,5.693-1.77
				C617.91,143.08,618.886,141.353,619.272,139.08z"/>
			<path class="st53" d="M685.046,87.293c7.033,0.172,12.522,2.553,16.469,7.141c3.945,4.59,6.111,10.744,6.498,18.463v4.568
				c-0.559,13.467-3.786,23.898-9.683,31.297s-13.584,10.969-23.062,10.711c-5.532-0.129-10.1-1.619-13.702-4.471
				s-6.187-6.809-7.752-11.869s-2.005-10.871-1.318-17.434l0.386-3.475c1.243-10.936,4.738-19.545,10.486-25.828
				C669.113,90.113,676.34,87.08,685.046,87.293z M669.993,132.969c0,7.42,2.272,11.258,6.818,11.516
				c6.176,0.344,10.186-4.375,12.03-14.154l0.708-4.631c0.6-6.176,0.9-10.143,0.9-11.9c0-7.377-2.338-11.215-7.013-11.516
				c-3.388-0.172-6.175,1.395-8.362,4.695c-2.188,3.303-3.582,8.074-4.182,14.314C670.292,127.533,669.993,131.424,669.993,132.969z
				"/>
			<path class="st53" d="M744.773,88.516l-1.287,7.012c4.89-5.703,10.314-8.469,16.275-8.299c4.891,0.088,8.609,1.92,11.162,5.502
				c2.551,3.58,3.805,8.674,3.764,15.277l-0.387,5.918l-7.398,44.26h-17.819l7.335-44.387l0.32-3.797
				c0.172-5.018-1.716-7.525-5.661-7.525c-1.844,0-3.409,0.504-4.695,1.512c-1.287,1.008-2.488,2.197-3.603,3.57l-8.813,50.627
				h-17.884l12.094-69.605L744.773,88.516z"/>
			<path class="st53" d="M850.729,88.986c6.243,0.168,10.894,2.809,13.953,7.92l6.536-35.26h10.873l-16.718,96.539h-9.868
				l1.194-7.291c-4.484,5.867-9.867,8.715-16.152,8.549c-5.657-0.084-10.025-2.283-13.104-6.6c-3.08-4.314-4.62-10.496-4.62-18.541
				c0-3.729,0.481-8.674,1.445-14.832c0.964-6.16,2.451-11.377,4.463-15.65C833.508,93.639,840.84,88.693,850.729,88.986z
				 M833.634,137.006c0.209,8.338,3.666,12.57,10.37,12.695c2.389,0.084,4.672-0.512,6.852-1.791
				c2.178-1.277,4.378-3.467,6.599-6.568l5.908-34.441c-2.096-5.238-5.594-7.961-10.496-8.172
				c-9.931-0.502-15.923,6.789-17.976,21.873C833.885,127.976,833.466,133.443,833.634,137.006z"/>
			<path class="st53" d="M907.861,159.443c-7.627-0.084-13.325-2.828-17.096-8.234c-3.771-5.404-5.154-12.779-4.148-22.123
				l0.817-6.725c1.298-10.559,4.514-18.824,9.647-24.795c5.132-5.971,11.659-8.852,19.578-8.643
				c6.452,0.168,11.303,2.379,14.55,6.631c3.247,4.254,4.786,10.234,4.62,17.943l-0.566,7.543l-0.942,6.475l-36.454-0.064
				c-0.545,3.771-0.796,6.727-0.754,8.863c0.084,4.232,1.132,7.553,3.143,9.961c2.012,2.41,4.881,3.637,8.61,3.678
				c2.682,0.084,5.332-0.451,7.951-1.604c2.618-1.152,5.373-3.174,8.265-6.064l5.091,7.102c-2.682,3.52-5.992,6.098-9.931,7.73
				C916.304,158.752,912.176,159.527,907.861,159.443z M915.969,98.414c-7.417-0.334-12.612,4.148-15.587,13.451l-1.697,6.096
				l26.083,0.062l0.314-1.633c0.251-1.928,0.377-3.939,0.377-6.035C925.291,102.73,922.128,98.75,915.969,98.414z"/>
			<path class="st53" d="M976.997,140.273c0.544-3.98-1.677-7.291-6.662-9.93l-8.422-4.4c-4.358-2.43-7.407-5.006-9.146-7.73
				c-1.739-2.723-2.504-5.887-2.294-9.49c0.335-5.74,2.682-10.496,7.04-14.268c4.357-3.771,9.679-5.615,15.964-5.531
				c6.075,0.168,10.831,2.168,14.268,6.002c3.435,3.834,5.027,8.727,4.776,14.676h-10.748c0.084-3.393-0.67-6.064-2.263-8.014
				c-1.593-1.947-3.812-2.963-6.662-3.047c-3.227,0-5.887,0.91-7.981,2.732c-2.096,1.824-3.354,4.18-3.771,7.072
				c-0.503,3.393,1.152,6.18,4.965,8.359l10.622,5.404c7.835,4.359,11.543,10.141,11.125,17.348
				c-0.42,6.158-2.892,11.072-7.417,14.738c-4.524,3.666-10.035,5.414-16.529,5.248c-6.244-0.084-11.313-2.127-15.21-6.129
				c-3.896-4-5.72-9.164-5.468-15.492l10.936,0.062c-0.084,3.939,0.775,6.924,2.577,8.957c1.801,2.033,4.357,3.049,7.668,3.049
				c3.478,0,6.357-0.881,8.642-2.641C975.289,145.49,976.62,143.164,976.997,140.273z"/>
		</g>
		<polygon class="st53" points="977.064,179.5 380.319,179.5 381.981,173.175 979.287,173.175 		"/>
		<polygon class="st53" points="881.347,365.129 360.81,365.129 363.47,358.733 885.005,358.733 		"/>
		<polygon class="st53" points="1021.014,365.763 923.026,365.763 925.686,358.733 1024.007,358.733 		"/>
	</g>
</g>
<g id="logo">
	<g>
		<path class="st52" d="M311.071,95.704c-17.818-5.539-37.259,4.215-50.651,23.256c0.295-6.155,0.011-12.578-0.993-19.171
			c-5.686-37.304-30.758-63.386-57.081-59.376c-23.059,3.514-38.316,28.779-37.93,60.062c-18.75-25.045-46.241-35.787-66.665-24.531
			c-11.788,6.497-19.194,19.575-20.322,35.882c-1.013,14.686,2.971,31.014,11.216,45.976c3.162,5.738,6.837,11.041,10.886,15.808
			c-22.216-6.941-43.571-2.837-54.334,12.412c-14.749,20.904-3.185,53.591,26.327,74.413c13.328,9.404,28.413,14.908,42.472,15.498
			c8.319,0.348,15.942-1.119,22.402-4.126c-11.892,26.791-12.82,51.002-2.253,67.463c7.78,12.122,20.779,18.582,35.661,17.724
			c18.605-1.073,30.79-13.818,41.537-25.062c7.953-8.315,15.463-16.166,24.862-19.161l0.747-0.257
			c9.117-3.298,19.857-1.642,31.229,0.111c15.032,2.316,32.02,4.936,47.17-4.74c0.346-0.221,0.694-0.451,1.038-0.684
			c12.325-8.384,18.7-21.425,17.488-35.779c-1.646-19.48-17.113-38.107-42.838-52.109c4.932-1.101,9.798-3.137,14.434-6.097
			c12.931-8.259,24.088-23.285,30.048-42.459C346.241,136.266,335.503,103.3,311.071,95.704z"/>
		<path class="st0" d="M297.191,100.227c-17.818-5.539-37.259,4.216-50.651,23.256c0.295-6.156,0.011-12.578-0.993-19.172
			c-5.686-37.304-30.758-63.386-57.081-59.375c-23.059,3.514-38.316,28.779-37.93,60.062c-18.75-25.045-46.241-35.787-66.665-24.531
			c-11.788,6.498-19.194,19.575-20.322,35.882c-1.013,14.687,2.971,31.014,11.216,45.976c3.162,5.738,6.836,11.041,10.886,15.808
			c-22.216-6.941-43.571-2.837-54.334,12.412c-14.749,20.904-3.186,53.591,26.326,74.413c13.328,9.404,28.413,14.908,42.472,15.498
			c8.319,0.348,15.942-1.118,22.402-4.126c-11.892,26.791-12.82,51.002-2.253,67.463c7.781,12.122,20.779,18.582,35.661,17.724
			c18.605-1.073,30.79-13.818,41.537-25.062c7.953-8.315,15.463-16.166,24.862-19.161l0.746-0.257
			c9.118-3.298,19.857-1.642,31.229,0.111c15.032,2.317,32.021,4.936,47.171-4.74c0.346-0.221,0.694-0.451,1.038-0.684
			c12.325-8.384,18.7-21.426,17.488-35.78c-1.646-19.479-17.113-38.106-42.838-52.109c4.932-1.101,9.799-3.137,14.434-6.097
			c12.931-8.259,24.089-23.285,30.048-42.458C332.361,140.789,321.623,107.823,297.191,100.227z"/>
		<g>
			<path class="st14" d="M181.965,197.519c-29.139,10.764-26.588,40.595-44.633,74.667c-26.474,49.988-8.204,79.318,17.928,77.811
				s37.312-35.35,63.405-43.647c0.081-0.026,0.162-0.051,0.243-0.077c0.08-0.029,0.16-0.058,0.24-0.087
				c25.748-9.314,55.228,10.718,76.872-4.004c21.643-14.722,18.268-49.112-33.176-72.631
				C227.778,213.52,211.631,188.307,181.965,197.519z"/>
			<path class="st14" d="M103.598,199.829c23.859,16.835,34.402,42.951,23.549,58.333s-38.993,14.202-62.851-2.633
				c-23.859-16.835-34.402-42.951-23.549-58.333C51.599,181.815,79.739,182.994,103.598,199.829z"/>
			<path class="st14" d="M245.523,151.618c-8.668,27.884-1.122,55.019,16.854,60.607s39.576-12.487,48.243-40.371
				s1.122-55.019-16.854-60.607C275.791,105.659,254.191,123.733,245.523,151.618z"/>
			<path class="st14" d="M147.834,122.057c14.863,26.97,12.818,56.601-4.569,66.183c-17.386,9.582-43.53-4.514-58.394-31.483
				c-14.863-26.97-12.818-56.601,4.569-66.183C106.826,80.991,132.97,95.087,147.834,122.057z"/>
			<path class="st14" d="M163.069,116.881c4.639,30.443,24.31,52.697,43.936,49.707c19.626-2.991,31.774-30.094,27.135-60.538
				s-24.31-52.697-43.936-49.706C170.579,59.335,158.43,86.438,163.069,116.881z"/>
		</g>
	</g>
	<g>
		<path class="st3" d="M478.128,238.213c0,6.237-1.56,12.19-4.677,17.859c-3.12,5.671-7.313,10.63-12.586,14.882
			c-5.272,4.253-11.454,7.628-18.54,10.12c-7.088,2.496-14.601,3.742-22.537,3.742c-2.835,0-5.076-0.366-6.718-1.105
			c-1.645-0.736-3.487-2.182-5.528-4.337c-5.671,12.36-10.29,23.727-13.862,34.103c-3.572,10.375-6.378,20.437-8.419,30.19
			c-4.311-1.021-7.824-2.807-10.545-5.358c-2.722-2.551-5.217-5.756-7.484-9.609c1.132-2.153,2.493-4.988,4.082-8.505
			c1.586-3.513,3.513-7.851,5.783-13.012c2.267-5.158,4.903-11.337,7.909-18.539c3.003-7.199,6.548-15.619,10.63-25.258
			c1.812-4.423,3.402-8.276,4.763-11.566c1.361-3.287,2.551-6.378,3.572-9.27s1.956-5.754,2.807-8.589
			c0.85-2.833,1.727-5.953,2.636-9.355c-5.331,1.701-10.234,3.687-14.712,5.953c-4.481,2.27-8.194,4.651-11.141,7.144
			c-1.021-0.68-2.07-1.7-3.146-3.062c-1.079-1.36-2.07-2.862-2.977-4.507c-0.909-1.643-1.701-3.316-2.381-5.018
			c-0.681-1.701-1.079-3.231-1.191-4.593c3.288-2.267,7.37-4.363,12.247-6.293c4.874-1.927,10.091-3.599,15.648-5.018
			c5.554-1.416,11.311-2.522,17.264-3.316c5.953-0.792,11.651-1.19,17.094-1.19c6.463,0,12.302,0.823,17.519,2.466
			c5.214,1.646,9.636,3.941,13.267,6.889c3.628,2.95,6.405,6.463,8.334,10.545C477.164,228.688,478.128,233.225,478.128,238.213z
			 M447.853,217.803c-4.311,0-8.733,0.34-13.267,1.021l2.041,3.062c-1.135,1.475-2.551,3.686-4.252,6.633
			c-1.701,2.95-3.572,6.493-5.613,10.631c-2.041,4.141-4.281,8.759-6.718,13.862c-2.44,5.103-5.018,10.489-7.739,16.158
			c8.844,0,16.894-0.821,24.152-2.467c7.255-1.643,13.463-3.912,18.625-6.804c5.158-2.891,9.185-6.264,12.076-10.12
			c2.891-3.854,4.337-7.994,4.337-12.416c0-5.895-1.985-10.631-5.953-14.202C461.571,219.588,455.677,217.803,447.853,217.803z"/>
		<path class="st3" d="M486.632,240.424c-0.68-0.566-1.305-1.502-1.871-2.807c-0.568-1.302-0.85-2.521-0.85-3.656
			c2.833-4.763,4.874-9.552,6.123-14.373c1.247-4.818,1.871-10.231,1.871-16.243c0-4.533-0.34-9.524-1.021-14.968
			c2.833,0.229,5.639,0.71,8.419,1.446c2.777,0.738,5.273,1.645,7.484,2.721c2.211,1.079,4.053,2.326,5.528,3.742
			c1.473,1.419,2.381,2.807,2.722,4.167C510.726,219.392,501.26,232.714,486.632,240.424z"/>
		<path class="st3" d="M497.006,264.746c-0.569-0.68-1.079-2.126-1.531-4.337c-0.455-2.211-0.681-4.108-0.681-5.698
			c2.947,0.455,5.783,0.681,8.504,0.681c2.722,0,5.214,0,7.484,0c1.701-3.362,3.542-6.697,5.528-10.006
			c1.982-3.307,3.912-6.333,5.783-9.081c1.871-2.745,3.627-5.071,5.272-6.979c1.643-1.906,2.918-3.139,3.827-3.7
			c1.132,0,2.578,0.199,4.337,0.596c1.757,0.398,3.543,0.909,5.358,1.53c1.812,0.625,3.458,1.276,4.933,1.956
			c1.472,0.681,2.493,1.361,3.062,2.041c-3.402,4.279-6.322,8.25-8.76,11.909c-2.439,3.662-5.076,7.855-7.909,12.584
			c2.267,0,4.563,0,6.888,0c2.323,0,4.678-0.17,7.059-0.511c0.566,0.569,1.021,1.276,1.361,2.126c0.34,0.851,0.51,1.73,0.51,2.637
			c-5.557,2.155-12.305,3.231-20.24,3.231c-2.835,5.459-5.358,10.886-7.569,16.286s-4.082,10.602-5.613,15.603
			c-1.531,5.002-2.722,9.722-3.572,14.154c-0.851,4.434-1.276,8.412-1.276,11.936c0,5.002,1.871,7.787,5.613,8.355
			c3.402-0.451,6.633-1.302,9.695-2.551c3.062-1.247,5.783-2.833,8.164-4.763c0.68,1.021,1.076,1.871,1.19,2.551
			c-0.68,1.016-1.844,2.198-3.487,3.548c-1.645,1.351-3.431,2.674-5.357,3.971c-1.93,1.292-3.801,2.39-5.613,3.293
			c-1.815,0.898-3.176,1.406-4.082,1.521c-2.835,0-5.671-0.569-8.504-1.701c-2.835-1.138-5.416-2.557-7.739-4.258
			c-2.325-1.706-4.226-3.606-5.698-5.705c-1.475-2.1-2.211-4.173-2.211-6.217c0-2.724,0.367-6.157,1.105-10.301
			c0.736-4.144,1.786-8.656,3.147-13.538c1.36-4.882,2.947-9.989,4.762-15.326c1.812-5.337,3.798-10.614,5.953-15.837H497.006z"/>
		<path class="st3" d="M538.505,318.494c0-1.021,0.085-2.297,0.255-3.827c0.17-1.531,0.481-3.572,0.936-6.123
			c0.452-2.552,1.047-5.64,1.786-9.27c0.736-3.628,1.672-7.994,2.807-13.097c0.226-1.133,0.736-2.947,1.531-5.443
			c0.792-2.493,1.842-5.129,3.146-7.909c1.302-2.777,2.892-5.469,4.762-8.079c1.871-2.606,4.109-4.533,6.719-5.783
			c1.927,0.455,4.478,1.616,7.654,3.487c3.173,1.871,5.895,4.451,8.164,7.739c-2.61,2.949-4.792,5.896-6.548,8.844
			c-1.759,2.95-3.346,6.012-4.762,9.186c-1.419,3.176-2.722,6.463-3.912,9.864c-1.19,3.402-2.525,6.974-3.997,10.716
			c-1.249,3.176-2.381,6.437-3.402,9.78c-1.021,3.346-1.589,6.267-1.701,8.759c0,2.041-0.029,3.487-0.085,4.338
			c-0.059,0.851-0.37,1.275-0.936,1.275c-0.455,0-1.361-0.284-2.722-0.851c-1.36-0.568-2.75-1.445-4.167-2.636
			c-1.419-1.191-2.695-2.692-3.827-4.508C539.071,323.145,538.505,320.99,538.505,318.494z M570.992,244.676
			c0-0.68,0.17-1.7,0.51-3.062c-0.569-0.565-1.05-1.416-1.446-2.551c-0.399-1.133-0.595-2.153-0.595-3.062
			c0-1.021,0.141-2.408,0.425-4.167c0.281-1.757,0.651-3.657,1.105-5.698c0.452-2.041,1.021-4.167,1.701-6.378
			c0.68-2.212,1.361-4.224,2.041-6.038c1.361,0,3.032,0.369,5.018,1.105c1.982,0.738,3.997,1.7,6.038,2.891
			c2.041,1.191,3.912,2.496,5.613,3.912c1.701,1.42,3.003,2.751,3.912,3.997c-1.249,1.249-2.892,2.977-4.933,5.188
			c-2.041,2.212-4.026,4.537-5.953,6.974c-1.929,2.44-3.686,4.736-5.272,6.889c-1.589,2.155-2.61,3.687-3.062,4.593
			c-1.361-0.226-2.551-0.821-3.572-1.786C571.502,246.521,570.992,245.585,570.992,244.676z"/>
		<path class="st3" d="M578.817,264.746c-0.569-0.68-1.079-2.126-1.531-4.337c-0.455-2.211-0.681-4.108-0.681-5.698
			c2.947,0.455,5.783,0.681,8.504,0.681c2.722,0,5.214,0,7.484,0c1.701-3.362,3.542-6.697,5.528-10.006
			c1.982-3.307,3.912-6.333,5.783-9.081c1.871-2.745,3.627-5.071,5.272-6.979c1.643-1.906,2.918-3.139,3.827-3.7
			c1.132,0,2.578,0.199,4.337,0.596c1.757,0.398,3.543,0.909,5.358,1.53c1.812,0.625,3.458,1.276,4.933,1.956
			c1.472,0.681,2.493,1.361,3.062,2.041c-3.402,4.279-6.322,8.25-8.76,11.909c-2.439,3.662-5.076,7.855-7.909,12.584
			c2.267,0,4.563,0,6.888,0c2.323,0,4.678-0.17,7.059-0.511c0.566,0.569,1.021,1.276,1.361,2.126c0.34,0.851,0.51,1.73,0.51,2.637
			c-5.557,2.155-12.305,3.231-20.24,3.231c-2.835,5.459-5.358,10.886-7.569,16.286s-4.082,10.602-5.613,15.603
			c-1.531,5.002-2.722,9.722-3.572,14.154c-0.851,4.434-1.276,8.412-1.276,11.936c0,5.002,1.871,7.787,5.613,8.355
			c3.402-0.451,6.633-1.302,9.695-2.551c3.062-1.247,5.783-2.833,8.164-4.763c0.68,1.021,1.076,1.871,1.19,2.551
			c-0.68,1.016-1.844,2.198-3.487,3.548c-1.645,1.351-3.431,2.674-5.357,3.971c-1.93,1.292-3.801,2.39-5.613,3.293
			c-1.815,0.898-3.176,1.406-4.082,1.521c-2.835,0-5.671-0.569-8.504-1.701c-2.835-1.138-5.416-2.557-7.739-4.258
			c-2.325-1.706-4.226-3.606-5.698-5.705c-1.475-2.1-2.211-4.173-2.211-6.217c0-2.724,0.367-6.157,1.105-10.301
			c0.736-4.144,1.786-8.656,3.147-13.538c1.36-4.882,2.947-9.989,4.762-15.326c1.812-5.337,3.798-10.614,5.953-15.837H578.817z"/>
		<path class="st3" d="M678.826,261.94c-0.114,2.155-0.483,4.396-1.105,6.719c-0.625,2.325-1.39,4.423-2.296,6.293
			c-0.909,1.871-1.871,3.432-2.892,4.678c-1.021,1.249-1.985,1.871-2.892,1.871c-1.249-0.111-1.985-0.962-2.211-2.552
			c0-0.34,0.141-0.877,0.425-1.615c0.282-0.736,0.595-1.558,0.936-2.467c0.34-0.906,0.651-1.812,0.935-2.721
			c0.282-0.906,0.425-1.701,0.425-2.382c0-1.586-0.369-2.918-1.105-3.997c-0.739-1.076-1.73-1.615-2.977-1.615
			c-4.537,0-7.994,2.822-10.375,8.464c-2.381,5.643-3.572,13.937-3.572,24.884c0,1.129,0.056,1.807,0.17,2.03
			c2.381,0,4.507,0,6.378,0c1.871,0,3.713,0,5.528,0c0.112,0.226,0.17,0.678,0.17,1.353c0,1.018-0.229,1.751-0.681,2.2
			c-2.609,0.566-4.677,1.048-6.208,1.44c-1.531,0.396-2.695,0.763-3.487,1.101c-0.794,0.34-1.275,0.707-1.446,1.101
			c-0.17,0.396-0.255,0.933-0.255,1.607c0,0.903,0.026,1.805,0.085,2.708c0.056,0.903,0.085,2.03,0.085,3.383
			c0,9.48-2.581,17.104-7.739,22.88c-5.161,5.772-12.332,9.113-21.516,10.021c-1.589-0.114-3.232-0.568-4.933-1.36
			c-1.701-0.795-3.317-1.815-4.848-3.062c-1.531-1.249-2.865-2.637-3.997-4.167c-1.135-1.531-1.929-3.091-2.381-4.678
			c0-4.343,0.906-8.483,2.721-12.427c1.812-3.941,4.279-7.426,7.399-10.455c3.117-3.029,6.803-5.485,11.056-7.372
			c4.252-1.885,8.871-2.828,13.862-2.828c0-2.846-0.284-5.637-0.85-8.368c-0.569-2.732-1.164-5.382-1.786-7.944
			c-0.625-2.562-1.22-5.067-1.786-7.518c-0.569-2.448-0.851-4.869-0.851-7.261c0-3.072,0.622-6.118,1.871-9.137
			c1.246-3.02,2.891-5.81,4.932-8.372c2.042-2.562,4.422-4.752,7.144-6.575c2.721-1.822,5.554-3.074,8.504-3.76
			c1.246,0.34,2.918,1.334,5.018,2.977c2.097,1.645,4.167,3.486,6.208,5.527s3.854,4.111,5.443,6.208
			C677.521,258.852,678.486,260.579,678.826,261.94z M622.698,339.5c2.721-1.135,5.299-2.78,7.739-4.933
			c2.437-2.155,4.563-4.593,6.378-7.314c1.812-2.721,3.258-5.612,4.337-8.674c1.076-3.062,1.616-6.064,1.616-9.015
			c-2.27,0.34-4.763,1.39-7.484,3.146c-2.722,1.759-5.273,3.856-7.654,6.293c-2.381,2.439-4.367,4.962-5.953,7.569
			c-1.589,2.609-2.381,4.874-2.381,6.803C619.296,335.869,620.428,337.91,622.698,339.5z"/>
		<path class="st3" d="M766.419,320.195c2.832,4.877,4.252,9.565,4.252,14.069c0,1.013-0.086,1.943-0.256,2.788
			c-0.17,0.846-0.369,1.717-0.596,2.618c-1.928-0.284-3.939-0.426-6.037-0.426c-2.1,0-4.281,0-6.549,0c-2.721,0-5.471,0-8.248,0
			c-2.781,0-5.869,0.181-9.271,0.542c-3.402,0.362-7.202,0.843-11.396,1.446c-4.196,0.601-9.073,1.385-14.627,2.35
			c-2.61-0.909-5.217-2.695-7.824-5.358c-2.61-2.665-5.047-5.868-7.314-9.609c1.132-2.493,2.551-5.584,4.252-9.27
			c1.701-3.684,3.684-8.165,5.953-13.438c2.267-5.272,4.789-11.451,7.569-18.539c2.777-7.086,5.754-15.279,8.93-24.578
			c2.041-6.123,3.798-11.507,5.273-16.158c1.472-4.647,2.806-9.155,3.997-13.521c1.19-4.364,2.352-8.93,3.486-13.692
			c1.132-4.763,2.381-10.261,3.742-16.498c4.534,0.908,8.476,2.58,11.821,5.018c3.344,2.439,6.549,5.926,9.609,10.46
			c-0.908,1.473-2.1,3.854-3.572,7.139c-1.475,3.284-3.205,7.279-5.188,11.98c-1.984,4.704-4.166,10.029-6.547,15.978
			c-2.383,5.947-4.877,12.32-7.485,19.119c-2.496,6.687-4.933,12.974-7.313,18.866c-2.381,5.892-4.507,11.218-6.378,15.975
			c-1.871,4.76-3.375,8.839-4.507,12.238c-1.135,3.399-1.701,5.947-1.701,7.646c1.812,0,3.458-0.056,4.932-0.17
			c1.473-0.111,3.003-0.311,4.593-0.595c1.586-0.282,3.316-0.622,5.188-1.021c1.871-0.396,4.108-0.936,6.718-1.616
			c2.267-0.566,4.364-1.047,6.294-1.445c1.926-0.396,3.826-0.736,5.697-1.021c1.871-0.282,3.797-0.511,5.783-0.681
			C761.683,320.62,763.923,320.423,766.419,320.195z"/>
		<path class="st3" d="M791.421,335.843c-6.463-0.681-11.624-3.516-15.478-8.505c-3.856-4.988-5.783-11.337-5.783-19.049
			c0-4.534,0.681-9.241,2.041-14.118c1.361-4.874,3.288-9.609,5.783-14.202c2.493-4.592,5.442-8.93,8.845-13.012
			c3.401-4.082,7.085-7.595,11.056-10.545c6.234-4.648,12.076-6.974,17.519-6.974c3.628,1.93,7.199,5.953,10.716,12.076
			c0.566,0,1.076-0.026,1.53-0.085c0.452-0.056,0.963-0.085,1.531-0.085c6.009,0,9.015,5.331,9.015,15.988
			c0,7.144-1.164,13.92-3.487,20.325c-2.325,6.407-5.557,12.22-9.694,17.434c-4.141,5.217-9.073,9.61-14.798,13.182
			C804.488,331.846,798.225,334.368,791.421,335.843z M800.096,282.266c-1.93,2.609-3.742,5.442-5.442,8.504
			c-1.701,3.062-3.176,6.152-4.423,9.27c-1.249,3.12-2.211,6.123-2.892,9.015c-0.68,2.892-1.021,5.473-1.021,7.739
			c0,2.722,0.452,5.331,1.361,7.824c0.906,2.495,1.927,3.912,3.062,4.252c5.103-1.132,9.779-3.258,14.032-6.378
			c4.252-3.118,7.936-7.001,11.056-11.651c3.117-4.648,5.554-9.921,7.313-15.818c1.757-5.895,2.637-12.188,2.637-18.879
			c0-2.947-0.171-5.273-0.511-6.974c-0.34-1.701-0.909-3.174-1.701-4.423c-4.99,1.476-9.439,3.856-13.352,7.144
			C806.304,275.18,802.929,278.638,800.096,282.266z"/>
		<path class="st3" d="M884.117,326.148c-2.155-1.812-3.601-4.082-4.337-6.803c-0.738-2.722-1.105-5.045-1.105-6.974
			c0-2.382,0.281-4.423,0.851-6.124c-0.455,0-1.476,0.906-3.062,2.714c-1.59,1.81-3.317,3.957-5.188,6.444
			c-1.871,2.488-3.716,4.917-5.528,7.29c-1.815,2.373-3.176,4.125-4.082,5.254c-1.475,1.584-2.865,2.825-4.167,3.731
			c-1.305,0.901-2.354,1.411-3.146,1.525c-1.815,0-3.716-0.316-5.698-0.94c-1.985-0.63-3.856-1.515-5.612-2.655
			c-1.76-1.14-3.291-2.509-4.593-4.108c-1.305-1.598-2.185-3.423-2.637-5.478c0-3.173,0.085-5.783,0.256-7.824
			c0.17-2.041,0.536-4.252,1.105-6.633c1.021-4.309,2.521-9.185,4.507-14.628c1.982-5.442,4.279-10.8,6.889-16.073
			c2.607-5.272,5.528-10.205,8.76-14.797c3.231-4.593,6.66-8.191,10.29-10.801c1.021,0,2.211,0.085,3.572,0.255
			c1.36,0.17,2.747,0.483,4.167,0.936c1.416,0.454,2.777,0.994,4.082,1.616c1.302,0.624,2.407,1.445,3.316,2.466
			c-1.021,1.135-3.601,4.933-7.739,11.396c-4.141,6.464-8.759,15.763-13.861,27.895c-0.569,1.249-1.249,3.062-2.041,5.443
			c-0.795,2.381-1.59,4.876-2.382,7.483c-0.795,2.609-1.445,5.161-1.956,7.654c-0.51,2.495-0.766,4.48-0.766,5.953
			c0,0.908,0.142,1.589,0.426,2.041c0.281,0.454,0.537,0.794,0.766,1.021c1.7-0.681,3.854-2.552,6.463-5.613
			c2.607-3.062,6.234-7.766,10.886-14.117c1.132-1.587,2.466-3.401,3.997-5.442c1.53-2.041,3.088-4.224,4.678-6.549
			c1.586-2.322,3.088-4.733,4.507-7.229c1.417-2.493,2.578-4.988,3.486-7.484c0.452-1.36,1.048-2.977,1.786-4.847
			c0.736-1.871,1.643-3.827,2.722-5.868c1.076-2.041,2.322-4.109,3.742-6.208c1.416-2.098,3.088-4.054,5.018-5.868
			c1.472,0,3.062,0.17,4.762,0.51c1.701,0.341,3.317,0.766,4.848,1.276c1.531,0.51,2.862,1.078,3.997,1.7
			c1.133,0.625,1.982,1.275,2.552,1.956c-2.041,4.991-4.311,9.924-6.804,14.798c-2.495,4.877-4.821,9.668-6.974,14.372
			c-2.155,4.707-3.971,9.384-5.442,14.032c-1.476,4.651-2.212,9.185-2.212,13.607c0,2.381,0.197,4.451,0.596,6.208
			c0.396,1.759,0.821,3.231,1.275,4.422c0.452,1.19,0.877,2.185,1.276,2.977c0.396,0.792,0.595,1.473,0.595,2.041
			c0,0.111-0.114,0.282-0.34,0.511c-0.114,0.111-0.229,0.17-0.341,0.17c-0.794,0-1.814-0.17-3.062-0.511
			c-1.249-0.34-2.636-0.823-4.167-1.445c-1.53-0.625-3.062-1.331-4.592-2.126C886.924,327.907,885.479,327.057,884.117,326.148z"/>
		<path class="st3" d="M900.954,386.189c-1.589-0.454-2.495-2.155-2.722-5.103c-0.454-1.475-0.765-3.231-0.936-5.272
			c-0.17-2.041-0.255-4.367-0.255-6.974c0-2.382,0.396-5.643,1.19-9.78c0.792-4.141,1.897-8.818,3.317-14.032
			c1.416-5.217,3.146-10.859,5.188-16.924s4.308-12.217,6.804-18.454c3.062-7.824,5.724-14.599,7.994-20.325
			c2.267-5.725,4.167-10.687,5.697-14.883c1.531-4.193,2.777-7.654,3.742-10.375c0.962-2.722,1.728-5.045,2.296-6.974
			c0.452-1.361,1.133-3.004,2.041-4.933c0.906-1.927,1.956-3.883,3.146-5.868c1.191-1.982,2.408-3.854,3.657-5.613
			c1.246-1.757,2.381-3.088,3.401-3.997c3.968,0.569,7.71,1.59,11.227,3.062c3.513,1.476,5.668,2.892,6.463,4.253
			c-1.589,1.475-3.401,3.771-5.442,6.888c-2.041,3.12-4.026,6.522-5.953,10.206c-1.93,3.686-3.687,7.457-5.273,11.311
			c-1.589,3.856-2.779,7.258-3.571,10.205c1.132-1.927,2.607-4.023,4.422-6.293c1.812-2.268,4.593-5.385,8.335-9.355
			c4.193-4.308,8.135-7.624,11.82-9.949c3.684-2.323,6.889-3.487,9.61-3.487c4.308,0,7.851,1.19,10.63,3.572
			c2.777,2.381,4.168,5.442,4.168,9.185c0,8.164-1.361,16.243-4.083,24.237c-2.721,7.994-6.633,15.223-11.735,21.686
			c-1.93,2.496-4.196,4.877-6.804,7.145c-2.609,2.27-5.331,4.281-8.164,6.038c-2.836,1.759-5.613,3.146-8.334,4.167
			c-2.722,1.021-5.161,1.53-7.314,1.53c-2.041,0-3.826-0.425-5.357-1.275c-1.53-0.851-2.58-1.897-3.146-3.146
			c4.422-2.607,8.73-6.235,12.927-10.886c4.193-4.648,8.079-10.006,11.65-16.073c3.572-6.064,6.689-12.613,9.355-19.646
			c2.662-7.029,4.677-14.173,6.038-21.431c-4.311,2.27-8.193,4.736-11.651,7.399c-3.46,2.665-6.889,6.152-10.29,10.46
			c-4.082,4.991-7.313,9.015-9.695,12.076c-2.381,3.062-4.337,5.671-5.868,7.824c-1.53,2.155-2.779,4.167-3.741,6.038
			c-0.965,1.871-2.015,4.167-3.146,6.889c-1.59,3.63-3.432,8.419-5.528,14.372c-2.1,5.953-4.252,12.613-6.463,19.985
			c-2.212,7.369-4.423,15.223-6.634,23.557s-4.337,16.64-6.378,24.918c-1.249-0.229-2.326-1.135-3.232-2.722
			c-0.908-1.021-1.56-1.759-1.956-2.211C902.001,386.755,901.521,386.414,900.954,386.189z"/>
		<path class="st3" d="M1047.399,261.94c-0.114,2.155-0.484,4.396-1.105,6.719c-0.625,2.325-1.391,4.423-2.297,6.293
			c-0.908,1.871-1.87,3.432-2.892,4.678c-1.021,1.249-1.984,1.871-2.891,1.871c-1.249-0.111-1.985-0.962-2.212-2.552
			c0-0.34,0.142-0.877,0.426-1.615c0.281-0.736,0.595-1.558,0.936-2.467c0.34-0.906,0.651-1.812,0.936-2.721
			c0.281-0.906,0.425-1.701,0.425-2.382c0-1.586-0.369-2.918-1.105-3.997c-0.739-1.076-1.73-1.615-2.977-1.615
			c-4.536,0-7.994,2.822-10.375,8.464c-2.382,5.643-3.572,13.937-3.572,24.884c0,1.129,0.056,1.807,0.17,2.03
			c2.382,0,4.508,0,6.379,0s3.712,0,5.527,0c0.111,0.226,0.17,0.678,0.17,1.353c0,1.018-0.229,1.751-0.68,2.2
			c-2.61,0.566-4.678,1.048-6.208,1.44c-1.531,0.396-2.695,0.763-3.487,1.101c-0.795,0.34-1.275,0.707-1.445,1.101
			c-0.171,0.396-0.256,0.933-0.256,1.607c0,0.903,0.027,1.805,0.085,2.708c0.057,0.903,0.086,2.03,0.086,3.383
			c0,9.48-2.581,17.104-7.739,22.88c-5.161,5.772-12.331,9.113-21.517,10.021c-1.589-0.114-3.231-0.568-4.932-1.36
			c-1.701-0.795-3.317-1.815-4.848-3.062c-1.531-1.249-2.865-2.637-3.997-4.167c-1.135-1.531-1.93-3.091-2.382-4.678
			c0-4.343,0.906-8.483,2.722-12.427c1.812-3.941,4.279-7.426,7.398-10.455c3.118-3.029,6.804-5.485,11.056-7.372
			c4.253-1.885,8.871-2.828,13.862-2.828c0-2.846-0.284-5.637-0.851-8.368c-0.568-2.732-1.164-5.382-1.785-7.944
			c-0.625-2.562-1.221-5.067-1.786-7.518c-0.569-2.448-0.851-4.869-0.851-7.261c0-3.072,0.622-6.118,1.871-9.137
			c1.246-3.02,2.892-5.81,4.933-8.372c2.041-2.562,4.422-4.752,7.144-6.575c2.722-1.822,5.555-3.074,8.504-3.76
			c1.247,0.34,2.918,1.334,5.018,2.977c2.097,1.645,4.167,3.486,6.208,5.527s3.854,4.111,5.443,6.208
			C1046.095,258.852,1047.059,260.579,1047.399,261.94z M991.271,339.5c2.722-1.135,5.299-2.78,7.739-4.933
			c2.437-2.155,4.562-4.593,6.378-7.314c1.812-2.721,3.258-5.612,4.337-8.674c1.076-3.062,1.616-6.064,1.616-9.015
			c-2.27,0.34-4.763,1.39-7.484,3.146c-2.721,1.759-5.272,3.856-7.653,6.293c-2.382,2.439-4.366,4.962-5.953,7.569
			c-1.589,2.609-2.381,4.874-2.381,6.803C987.869,335.869,989.001,337.91,991.271,339.5z"/>
	</g>
	<g>
		<path class="st14" d="M423.622,64.521l5.468,67.354l28.756-67.354h24.317l-16.275,93.665H447.36l4.503-25.925l8.106-36.99
			l-28.691,62.915h-12.544l-7.077-65.038l-5.339,40.335l-4.246,24.703h-18.463l16.211-93.665H423.622z"/>
		<path class="st14" d="M517.315,158.186c-0.344-1.457-0.515-3.259-0.515-5.403c-3.946,4.503-8.449,6.754-13.509,6.754
			c-5.362-0.086-9.661-2.059-12.898-5.918c-3.239-3.86-4.729-8.663-4.471-14.41c0.386-7.376,3.259-13.155,8.621-17.337
			c5.36-4.182,12.565-6.272,21.615-6.272h5.211l0.836-5.661l0.193-2.895c0-3.731-1.501-5.597-4.503-5.597
			c-4.161-0.129-6.69,2.53-7.591,7.977l-17.691,0.129c0.386-6.604,3.13-11.998,8.234-16.18c5.104-4.181,11.322-6.229,18.656-6.144
			c6.905,0.172,12.191,2.349,15.858,6.53c3.667,4.182,5.156,9.703,4.471,16.564l-5.661,35.382l-0.257,3.41
			c-0.172,3.002,0.129,5.64,0.901,7.912l-0.064,1.158H517.315z M508.181,145.32c3.13,0.087,6.047-1.286,8.749-4.117l3.152-14.731
			h-3.86c-3.432,0.172-6.198,1.33-8.298,3.474c-2.102,2.146-3.368,4.847-3.796,8.105l-0.064,2.445c0,1.373,0.354,2.509,1.062,3.409
			C505.833,144.805,506.851,145.278,508.181,145.32z"/>
		<path class="st14" d="M567.586,158.186h-17.819l12.094-69.605h17.819L567.586,158.186z M564.177,70.889
			c0-2.959,0.933-5.371,2.798-7.237c1.866-1.865,4.149-2.798,6.851-2.798c2.659-0.086,4.921,0.783,6.787,2.605
			c1.865,1.823,2.798,4.085,2.798,6.787c0,3.002-0.933,5.436-2.798,7.301c-1.866,1.866-4.149,2.799-6.852,2.799
			c-2.745,0.086-5.029-0.782-6.851-2.605C565.087,75.918,564.177,73.634,564.177,70.889z"/>
		<path class="st14" d="M619.271,139.079c0.428-3.001-1.909-5.682-7.012-8.041c-5.104-2.358-8.932-4.577-11.483-6.658
			c-2.552-2.08-4.418-4.385-5.597-6.916c-1.18-2.529-1.705-5.403-1.576-8.62c0.299-6.304,2.884-11.504,7.751-15.6
			c4.867-4.096,10.818-6.101,17.852-6.016c6.948,0.172,12.426,2.242,16.437,6.208c4.009,3.968,5.972,9.211,5.886,15.729h-17.755
			c0.128-3.021-0.269-5.16-1.19-6.415c-0.923-1.256-2.371-1.884-4.343-1.884c-2.058,0-3.806,0.695-5.243,2.085
			c-1.438,1.389-2.327,3.066-2.67,5.032c-0.515,2.779,1.662,5.259,6.53,7.439c4.867,2.181,8.373,3.996,10.518,5.45
			c6.39,4.246,9.37,10.058,8.942,17.434c-0.257,4.332-1.598,8.116-4.021,11.354c-2.424,3.238-5.661,5.715-9.714,7.43
			c-4.053,1.715-8.438,2.509-13.156,2.38c-6.777-0.172-12.309-2.38-16.597-6.626c-4.289-4.245-6.391-9.67-6.305-16.275l16.919,0.064
			c-0.128,3.346,0.407,5.748,1.608,7.205c1.2,1.458,3.066,2.188,5.597,2.188c2.229,0,4.127-0.589,5.693-1.77
			C617.91,143.079,618.886,141.354,619.271,139.079z"/>
		<path class="st14" d="M685.046,87.293c7.033,0.172,12.522,2.553,16.469,7.141c3.945,4.59,6.111,10.743,6.498,18.463v4.567
			c-0.558,13.468-3.786,23.899-9.682,31.297c-5.897,7.398-13.584,10.969-23.062,10.711c-5.532-0.128-10.1-1.618-13.702-4.471
			c-3.603-2.852-6.187-6.808-7.752-11.869c-1.566-5.06-2.005-10.871-1.319-17.434l0.386-3.474
			c1.243-10.937,4.738-19.545,10.486-25.828C669.113,90.114,676.339,87.079,685.046,87.293z M669.993,132.968
			c0,7.42,2.272,11.258,6.819,11.516c6.176,0.344,10.186-4.375,12.03-14.153l0.708-4.632c0.6-6.176,0.9-10.142,0.9-11.9
			c0-7.376-2.338-11.215-7.012-11.516c-3.388-0.171-6.175,1.395-8.363,4.696c-2.187,3.303-3.582,8.073-4.182,14.313
			C670.292,127.532,669.993,131.424,669.993,132.968z"/>
		<path class="st14" d="M744.773,88.516l-1.287,7.012c4.889-5.703,10.314-8.47,16.275-8.299c4.891,0.087,8.609,1.92,11.162,5.501
			c2.551,3.581,3.805,8.674,3.764,15.278l-0.387,5.918l-7.398,44.26h-17.819l7.334-44.388l0.32-3.796
			c0.172-5.018-1.715-7.526-5.661-7.526c-1.844,0-3.409,0.504-4.696,1.512s-2.488,2.198-3.603,3.57l-8.813,50.628h-17.884
			l12.094-69.605L744.773,88.516z"/>
		<path class="st14" d="M850.729,88.987c6.243,0.168,10.894,2.808,13.953,7.919l6.536-35.259h10.873l-16.718,96.539h-9.868
			l1.194-7.291c-4.484,5.867-9.867,8.715-16.152,8.548c-5.657-0.084-10.025-2.283-13.104-6.6c-3.08-4.314-4.62-10.496-4.62-18.541
			c0-3.729,0.481-8.673,1.445-14.832c0.964-6.16,2.451-11.377,4.463-15.65C833.508,93.638,840.84,88.694,850.729,88.987z
			 M833.634,137.005c0.209,8.339,3.666,12.57,10.37,12.695c2.389,0.085,4.672-0.512,6.852-1.791
			c2.178-1.277,4.378-3.467,6.599-6.567l5.908-34.442c-2.096-5.237-5.594-7.961-10.496-8.171
			c-9.931-0.503-15.923,6.788-17.976,21.872C833.885,127.976,833.466,133.444,833.634,137.005z"/>
		<path class="st14" d="M907.861,159.443c-7.627-0.084-13.325-2.828-17.096-8.233c-3.771-5.405-5.154-12.779-4.148-22.123
			l0.817-6.726c1.298-10.559,4.514-18.824,9.647-24.795c5.132-5.971,11.659-8.851,19.578-8.642
			c6.452,0.168,11.303,2.378,14.55,6.631s4.786,10.234,4.62,17.943l-0.566,7.543l-0.942,6.474l-36.454-0.063
			c-0.545,3.771-0.796,6.726-0.754,8.862c0.084,4.232,1.132,7.553,3.143,9.962c2.012,2.41,4.881,3.636,8.61,3.677
			c2.682,0.084,5.332-0.45,7.951-1.603c2.618-1.152,5.373-3.174,8.265-6.065l5.091,7.103c-2.682,3.52-5.992,6.097-9.931,7.73
			S912.176,159.527,907.861,159.443z M915.969,98.414c-7.417-0.335-12.612,4.148-15.587,13.45l-1.697,6.097l26.083,0.062
			l0.314-1.634c0.251-1.927,0.377-3.938,0.377-6.034C925.291,102.731,922.128,98.75,915.969,98.414z"/>
		<path class="st14" d="M976.997,140.274c0.544-3.98-1.677-7.291-6.662-9.931l-8.422-4.399c-4.358-2.43-7.407-5.007-9.146-7.731
			c-1.739-2.723-2.504-5.886-2.294-9.49c0.335-5.74,2.682-10.496,7.04-14.268c4.357-3.771,9.679-5.614,15.964-5.53
			c6.075,0.168,10.831,2.168,14.268,6.002c3.435,3.834,5.027,8.727,4.776,14.676h-10.748c0.084-3.394-0.67-6.065-2.263-8.014
			s-3.812-2.964-6.662-3.048c-3.227,0-5.887,0.911-7.981,2.733c-2.096,1.823-3.354,4.18-3.771,7.071
			c-0.503,3.394,1.152,6.181,4.965,8.359l10.622,5.405c7.835,4.358,11.543,10.141,11.125,17.347
			c-0.42,6.159-2.892,11.072-7.417,14.738c-4.524,3.667-10.035,5.415-16.529,5.248c-6.244-0.084-11.313-2.126-15.21-6.128
			c-3.896-4.001-5.72-9.165-5.468-15.492l10.936,0.062c-0.084,3.938,0.775,6.924,2.577,8.956c1.801,2.033,4.357,3.049,7.668,3.049
			c3.478,0,6.357-0.88,8.642-2.641C975.289,145.49,976.62,143.164,976.997,140.274z"/>
	</g>
	<polygon class="st54" points="977.064,179.5 380.319,179.5 381.981,173.175 979.287,173.175 	"/>
	<polygon class="st54" points="881.347,365.129 360.81,365.129 363.47,358.733 885.005,358.733 	"/>
	<polygon class="st54" points="1021.014,365.763 923.026,365.763 925.686,358.733 1024.007,358.733 	"/>
</g>
<g id="chemin">
</g>
</svg>
